# xmcd
#
# Track frame offsets: 
#        150
#        19828
#        34604
#        42128
#        51991
#        61794
#        75488
#        102464
#        115147
#        125988
#        146672
#
# Disc length: 2163 seconds
#
# Revision: 0
# Processed by: cddbd v1.5.2PL0 Copyright (c) Steve Scherf et al.
# Submitted via: ExactAudioCopyFreeDBPlugin 1.0
#
DISCID=9408710b
DTITLE=Lisandro Aristimuno - Las Crónicas del Viento [CD2)
DYEAR=2009
DGENRE=Folk
TTITLE0=Fecundación (Te Llamo Sin Parar)
TTITLE1=Hoy
TTITLE2=Ella
TTITLE3=Caminata
TTITLE4=Todas Las Hojas Del Jardín
TTITLE5=Mi Memoria
TTITLE6=Nada De Nada
TTITLE7=Trece Lunas Y Un Laberinto
TTITLE8=Otra Canción De Cuna
TTITLE9=Días Breves
TTITLE10=Vi Tu Foto
EXTD=
EXTT0=
EXTT1=
EXTT2=
EXTT3=
EXTT4=
EXTT5=
EXTT6=
EXTT7=
EXTT8=
EXTT9=
EXTT10=
PLAYORDER=
